
<svg width="191" height="60" viewBox="0 0 191 60" fill="none" xmlns="http://www.w3.org/2000/svg">
<path d="M60.4452 30C60.4452 45.7043 47.3752 58.5 31.1716 58.5C14.9681 58.5 1.89807 45.7043 1.89807 30C1.89807 14.2957 14.9681 1.5 31.1716 1.5C47.3752 1.5 60.4452 14.2957 60.4452 30Z" stroke="url(#paint0_linear)" stroke-width="3"/>
<mask id="mask0" mask-type="alpha" maskUnits="userSpaceOnUse" x="8" y="19" width="47" height="22">
<line x1="10.1044" y1="26.5" x2="10.1044" y2="35.5" stroke="black" stroke-width="3" stroke-linecap="round"/>
<line x1="16.2591" y1="26.5" x2="16.2591" y2="35.5" stroke="black" stroke-width="3" stroke-linecap="round"/>
<line x1="47.0327" y1="26.5" x2="47.0327" y2="35.5" stroke="black" stroke-width="3" stroke-linecap="round"/>
<line x1="53.1874" y1="26.5" x2="53.1874" y2="35.5" stroke="black" stroke-width="3" stroke-linecap="round"/>
<line x1="1.5" y1="-1.5" x2="16.4998" y2="-1.5" transform="matrix(0.00360084 0.999994 -0.999994 0.00342209 20.9138 22)" stroke="black" stroke-width="3" stroke-linecap="round"/>
<line x1="1.5" y1="-1.5" x2="16.4998" y2="-1.5" transform="matrix(0.00360084 0.999994 -0.999994 0.00342209 39.3779 22)" stroke="black" stroke-width="3" stroke-linecap="round"/>
<line x1="1.5" y1="-1.5" x2="19.4998" y2="-1.5" transform="matrix(0.00308643 0.999995 -0.999996 0.00293322 27.0685 20)" stroke="black" stroke-width="3" stroke-linecap="round"/>
<line x1="1.5" y1="-1.5" x2="19.4998" y2="-1.5" transform="matrix(0.00308643 0.999995 -0.999996 0.00293322 33.2232 20)" stroke="black" stroke-width="3" stroke-linecap="round"/>
</mask>
<g mask="url(#mask0)">
<rect x="4.50122" y="20" width="53.3409" height="21" fill="url(#paint1_linear)"/>
</g>
<path d="M76.3553 34.126C75.4793 34.126 74.6873 33.976 73.9793 33.676C73.2833 33.376 72.7313 32.944 72.3233 32.38C71.9153 31.816 71.7053 31.15 71.6933 30.382H74.3933C74.4293 30.898 74.6093 31.306 74.9333 31.606C75.2693 31.906 75.7253 32.056 76.3013 32.056C76.8893 32.056 77.3513 31.918 77.6873 31.642C78.0233 31.354 78.1913 30.982 78.1913 30.526C78.1913 30.154 78.0773 29.848 77.8493 29.608C77.6213 29.368 77.3333 29.182 76.9853 29.05C76.6493 28.906 76.1813 28.75 75.5813 28.582C74.7653 28.342 74.0993 28.108 73.5833 27.88C73.0793 27.64 72.6413 27.286 72.2693 26.818C71.9093 26.338 71.7293 25.702 71.7293 24.91C71.7293 24.166 71.9153 23.518 72.2873 22.966C72.6593 22.414 73.1813 21.994 73.8533 21.706C74.5253 21.406 75.2933 21.256 76.1573 21.256C77.4533 21.256 78.5033 21.574 79.3073 22.21C80.1233 22.834 80.5733 23.71 80.6573 24.838H77.8853C77.8613 24.406 77.6753 24.052 77.3273 23.776C76.9913 23.488 76.5413 23.344 75.9773 23.344C75.4853 23.344 75.0893 23.47 74.7893 23.722C74.5013 23.974 74.3573 24.34 74.3573 24.82C74.3573 25.156 74.4653 25.438 74.6813 25.666C74.9093 25.882 75.1853 26.062 75.5093 26.206C75.8453 26.338 76.3133 26.494 76.9133 26.674C77.7293 26.914 78.3953 27.154 78.9113 27.394C79.4273 27.634 79.8713 27.994 80.2433 28.474C80.6153 28.954 80.8013 29.584 80.8013 30.364C80.8013 31.036 80.6273 31.66 80.2793 32.236C79.9313 32.812 79.4213 33.274 78.7493 33.622C78.0773 33.958 77.2793 34.126 76.3553 34.126ZM88.818 34.126C87.642 34.126 86.562 33.85 85.578 33.298C84.594 32.746 83.814 31.984 83.238 31.012C82.662 30.028 82.374 28.918 82.374 27.682C82.374 26.458 82.662 25.36 83.238 24.388C83.814 23.404 84.594 22.636 85.578 22.084C86.562 21.532 87.642 21.256 88.818 21.256C90.006 21.256 91.086 21.532 92.058 22.084C93.042 22.636 93.816 23.404 94.38 24.388C94.956 25.36 95.244 26.458 95.244 27.682C95.244 28.918 94.956 30.028 94.38 31.012C93.816 31.984 93.042 32.746 92.058 33.298C91.074 33.85 89.994 34.126 88.818 34.126ZM88.818 31.876C89.574 31.876 90.24 31.708 90.816 31.372C91.392 31.024 91.842 30.532 92.166 29.896C92.49 29.26 92.652 28.522 92.652 27.682C92.652 26.842 92.49 26.11 92.166 25.486C91.842 24.85 91.392 24.364 90.816 24.028C90.24 23.692 89.574 23.524 88.818 23.524C88.062 23.524 87.39 23.692 86.802 24.028C86.226 24.364 85.776 24.85 85.452 25.486C85.128 26.11 84.966 26.842 84.966 27.682C84.966 28.522 85.128 29.26 85.452 29.896C85.776 30.532 86.226 31.024 86.802 31.372C87.39 31.708 88.062 31.876 88.818 31.876ZM99.6028 21.436V29.212C99.6028 30.064 99.8248 30.718 100.269 31.174C100.713 31.618 101.337 31.84 102.141 31.84C102.957 31.84 103.587 31.618 104.031 31.174C104.475 30.718 104.697 30.064 104.697 29.212V21.436H107.235V29.194C107.235 30.262 107.001 31.168 106.533 31.912C106.077 32.644 105.459 33.196 104.679 33.568C103.911 33.94 103.053 34.126 102.105 34.126C101.169 34.126 100.317 33.94 99.5488 33.568C98.7928 33.196 98.1928 32.644 97.7488 31.912C97.3048 31.168 97.0828 30.262 97.0828 29.194V21.436H99.6028ZM120.416 34H117.896L112.19 25.378V34H109.67V21.418H112.19L117.896 30.058V21.418H120.416V34ZM127.298 21.436C128.618 21.436 129.776 21.694 130.772 22.21C131.78 22.726 132.554 23.464 133.094 24.424C133.646 25.372 133.922 26.476 133.922 27.736C133.922 28.996 133.646 30.1 133.094 31.048C132.554 31.984 131.78 32.71 130.772 33.226C129.776 33.742 128.618 34 127.298 34H122.906V21.436H127.298ZM127.208 31.858C128.528 31.858 129.548 31.498 130.268 30.778C130.988 30.058 131.348 29.044 131.348 27.736C131.348 26.428 130.988 25.408 130.268 24.676C129.548 23.932 128.528 23.56 127.208 23.56H125.426V31.858H127.208ZM152.602 21.436L149.092 34H146.122L143.764 25.054L141.298 34L138.346 34.018L134.962 21.436H137.662L139.876 31.192L142.432 21.436H145.24L147.652 31.138L149.884 21.436H152.602ZM161.952 31.606H156.948L156.12 34H153.474L157.992 21.418H160.926L165.444 34H162.78L161.952 31.606ZM161.268 29.59L159.45 24.334L157.632 29.59H161.268ZM178.418 21.436L173.81 34H170.75L166.142 21.436H168.842L172.298 31.426L175.736 21.436H178.418ZM182.449 23.47V26.62H186.679V28.618H182.449V31.948H187.219V34H179.929V21.418H187.219V23.47H182.449Z" fill="#E3E1E1"/>
<defs>
<linearGradient id="paint0_linear" x1="31.1716" y1="0" x2="31.1716" y2="60" gradientUnits="userSpaceOnUse">
<stop stop-color="#1762A7"/>
<stop offset="1" stop-color="#BC3A80"/>
</linearGradient>
<linearGradient id="paint1_linear" x1="31.1716" y1="20" x2="31.1716" y2="41" gradientUnits="userSpaceOnUse">
<stop stop-color="#1762A7"/>
<stop offset="1" stop-color="#BC3A80"/>
</linearGradient>
</defs>
</svg>
